<svg width="365" height="231" viewBox="0 0 365 231" fill="none" xmlns="http://www.w3.org/2000/svg">
<path d="M154.54 11.3914C203.634 -1.7631 251.321 -2.37816 288.808 7.4656C326.161 17.2741 354.291 37.7826 362.273 67.5701C370.254 97.3574 356.147 129.183 328.703 156.353C301.16 183.622 259.554 206.932 210.46 220.087C161.367 233.241 113.68 233.857 76.1928 224.013C38.8401 214.205 10.7104 193.696 2.72892 163.909C-3.10518 142.136 2.89193 119.213 17.2192 97.9207C31.5417 76.6353 54.3628 56.6722 82.9447 40.4119C103.954 28.4599 128.153 18.462 154.54 11.3914ZM286.661 15.6424C250.837 6.23561 204.666 6.71277 156.729 19.5574C131.007 26.4496 107.48 36.1792 87.1244 47.7595C59.3668 63.551 37.6502 82.7003 24.2328 102.64C10.8202 122.574 5.87574 142.99 10.8949 161.721C17.7511 187.308 42.3829 206.395 78.3402 215.837C114.164 225.244 160.336 224.766 208.273 211.922C256.21 199.077 296.434 176.404 322.754 150.345C349.173 124.19 360.963 95.3447 354.107 69.7576C347.251 44.1705 322.618 25.0845 286.661 15.6424Z" fill="white"/>
<path d="M292.372 119.427C292.981 121.659 292.338 123.384 290.445 124.601C288.551 125.818 285.846 126.427 282.329 126.427C278.88 126.427 275.87 125.818 273.3 124.601C270.73 123.384 269.174 121.659 268.633 119.427C268.498 119.021 268.397 116.722 268.329 112.529C268.126 92.3745 266.706 79.8627 264.068 74.9932C262.783 72.4909 261.16 71.6455 259.199 72.457C256.832 73.4039 255.242 76.7516 254.431 82.5003C253.619 88.249 253.619 94.302 254.431 100.659C255.31 107.017 256.73 111.616 258.692 114.456C259.571 115.674 260.45 116.62 261.329 117.297C262.276 117.905 263.054 118.277 263.663 118.413C264.271 118.548 264.846 118.785 265.387 119.123C265.928 119.393 266.334 119.867 266.604 120.543C267.146 122.031 265.894 123.384 262.851 124.601C259.808 125.818 256.866 126.427 254.025 126.427C251.726 126.427 249.528 126.089 247.431 125.412C245.334 124.736 243.441 123.654 241.75 122.166C240.059 120.611 238.707 118.751 237.692 116.587C236.678 114.422 236.137 111.751 236.069 108.572C236.069 105.394 236.576 101.911 237.591 98.1232C238.605 94.3358 240.431 89.9736 243.069 85.0365C245.706 80.0318 249.088 74.7903 253.213 69.3122C253.619 68.7711 253.924 68.2639 254.126 67.7905C254.329 67.317 254.431 66.9113 254.431 66.5731C254.498 66.2349 254.498 65.9644 254.431 65.7615C254.431 65.5586 254.363 65.3557 254.228 65.1528C254.16 64.8823 254.126 64.7132 254.126 64.6456C253.585 62.4138 254.262 60.6892 256.155 59.4718C258.049 58.2544 260.721 57.6458 264.17 57.6458C267.619 57.6458 270.629 58.2544 273.199 59.4718C275.769 60.6892 277.358 62.4138 277.967 64.6456C278.169 65.2543 278.474 66.8436 278.88 69.4136C279.285 71.916 279.894 75.2299 280.706 79.3555C281.585 83.4133 282.599 87.6403 283.749 92.0364C285.305 97.8527 287.131 103.872 289.227 110.094C291.324 116.248 292.372 119.359 292.372 119.427Z" fill="white"/>
<path d="M235.165 74.1816C234.962 77.6985 234.015 80.6405 232.324 83.0076C230.633 85.307 228.604 86.8964 226.237 87.7756C223.87 88.6548 221.3 89.2973 218.527 89.7031C215.822 90.1089 213.286 90.2779 210.919 90.2103C208.619 90.075 206.658 90.1089 205.035 90.3118C203.479 90.5146 202.634 90.9543 202.499 91.6306C202.363 92.5774 202.837 93.3214 203.919 93.8624C205.001 94.4035 206.455 94.8769 208.281 95.2827C210.107 95.6208 212.136 96.0266 214.368 96.5C216.667 96.9058 218.933 97.6498 221.165 98.7319C223.464 99.7463 225.561 101.031 227.455 102.587C229.348 104.142 230.87 106.408 232.02 109.384C233.237 112.36 233.846 115.809 233.846 119.731C233.846 122.031 232.73 123.789 230.498 125.007C228.266 126.224 225.426 126.833 221.976 126.833C218.527 126.833 215.687 126.224 213.455 125.007C211.223 123.789 210.107 122.031 210.107 119.731C210.039 116.147 208.991 112.36 206.962 108.369C205.001 104.311 202.735 101.268 200.165 99.2391C197.663 97.1425 195.702 96.7367 194.281 98.0217C193.673 98.8333 193.436 99.7125 193.571 100.659C193.706 101.606 194.112 102.925 194.789 104.616C195.533 106.239 196.31 107.828 197.122 109.384C197.933 110.939 198.644 112.732 199.252 114.761C199.929 116.789 200.301 118.649 200.368 120.34C200.368 120.881 200.199 121.49 199.861 122.166C199.523 122.842 198.948 123.553 198.136 124.297C197.392 124.973 196.209 125.548 194.586 126.021C193.03 126.495 191.17 126.765 189.006 126.833C185.286 126.968 182.243 126.393 179.876 125.108C177.509 123.756 176.393 121.727 176.528 119.021C176.596 118.683 176.697 117.567 176.832 115.674C177.035 113.712 177.204 111.751 177.34 109.79C177.475 107.828 177.61 105.191 177.745 101.877C177.948 98.4952 178.05 95.0798 178.05 91.6306C178.05 85.8143 177.779 80.0656 177.238 74.3845C176.765 68.6359 176.528 65.7277 176.528 65.6601C176.528 61.4669 180.518 59.0998 188.499 58.5588C190.19 58.4912 194.518 58.4573 201.484 58.4573C208.518 58.4573 213.861 58.4912 217.513 58.5588C219.812 58.694 221.976 59.066 224.005 59.6747C226.102 60.2158 228.029 61.0611 229.788 62.2109C231.614 63.3606 233 64.9838 233.947 67.0803C234.962 69.1093 235.367 71.4764 235.165 74.1816ZM192.76 89.6016C194.045 89.7369 196.04 88.9929 198.745 87.3698C201.45 85.679 204.088 83.6839 206.658 81.3844C209.228 79.0173 211.324 76.5149 212.948 73.8773C214.571 71.1721 215.01 69.0078 214.266 67.3847C213.184 65.6939 211.527 64.95 209.296 65.1528C207.064 65.3557 204.426 66.8436 201.383 69.6165C198.407 72.3894 195.938 75.8048 193.977 79.8627C193.706 80.539 193.436 81.1815 193.165 81.7902C192.895 82.3989 192.591 83.0752 192.252 83.8191C191.982 84.5631 191.779 85.2732 191.644 85.9495C191.508 86.5582 191.407 87.1331 191.339 87.6741C191.339 88.2152 191.441 88.6548 191.644 88.9929C191.914 89.3311 192.286 89.534 192.76 89.6016Z" fill="white"/>
<path d="M173.189 65.0514C173.189 65.6601 173.054 67.2494 172.783 69.8194C172.58 72.3218 172.344 75.6357 172.073 79.7612C171.87 83.8191 171.769 88.0461 171.769 92.4421C171.769 94.9445 171.701 97.1425 171.566 99.0362C171.498 100.862 171.262 103.026 170.856 105.529C170.45 108.031 169.875 110.195 169.131 112.021C168.455 113.78 167.44 115.64 166.088 117.601C164.735 119.495 163.112 121.05 161.218 122.268C159.325 123.485 156.958 124.499 154.117 125.311C151.276 126.055 148.064 126.427 144.479 126.427C127.098 126.427 118.408 115.099 118.408 92.4421C118.408 88.0461 118.272 83.8191 118.002 79.7612C117.799 75.6357 117.562 72.3218 117.292 69.8194C117.089 67.2494 116.987 65.6601 116.987 65.0514C116.987 62.8195 118.103 61.0949 120.335 59.8776C122.567 58.5926 125.407 57.9501 128.857 57.9501C132.373 57.9501 135.248 58.5926 137.48 59.8776C139.711 61.0949 140.827 62.8195 140.827 65.0514C140.827 65.4572 140.388 67.3847 139.509 70.8339C138.629 74.2831 137.75 78.1719 136.871 82.5003C136.059 86.7611 135.383 91.1909 134.842 95.7899C134.369 100.321 134.504 104.311 135.248 107.761C136.059 111.21 137.615 113.374 139.914 114.253C142.62 115.268 144.818 115.302 146.508 114.355C148.267 113.34 149.45 111.717 150.059 109.485C150.668 107.186 151.074 104.548 151.276 101.572C151.479 98.5966 151.344 95.5532 150.871 92.4421C149.856 82.9737 149.349 73.8435 149.349 65.0514C149.349 62.8195 150.465 61.0949 152.697 59.8776C154.996 58.5926 157.871 57.9501 161.32 57.9501C164.769 57.9501 167.609 58.5926 169.841 59.8776C172.073 61.0949 173.189 62.8195 173.189 65.0514Z" fill="white"/>
<path d="M120.189 119.427C120.798 121.659 120.155 123.384 118.262 124.601C116.368 125.818 113.663 126.427 110.146 126.427C106.697 126.427 103.687 125.818 101.117 124.601C98.5472 123.384 96.9917 121.659 96.4506 119.427C96.3153 119.021 96.2139 116.722 96.1463 112.529C95.9434 92.3745 94.5231 79.8627 91.8855 74.9932C90.6005 72.4909 88.9773 71.6455 87.016 72.457C84.6489 73.4039 83.0596 76.7516 82.248 82.5003C81.4364 88.249 81.4364 94.302 82.248 100.659C83.1272 107.017 84.5475 111.616 86.5088 114.456C87.388 115.674 88.2672 116.62 89.1464 117.297C90.0932 117.905 90.871 118.277 91.4797 118.413C92.0884 118.548 92.6632 118.785 93.2043 119.123C93.7453 119.393 94.1511 119.867 94.4217 120.543C94.9627 122.031 93.7115 123.384 90.6681 124.601C87.6247 125.818 84.6827 126.427 81.8422 126.427C79.5427 126.427 77.3447 126.089 75.2481 125.412C73.1516 124.736 71.2579 123.654 69.5671 122.166C67.8763 120.611 66.5237 118.751 65.5092 116.587C64.4947 114.422 63.9537 111.751 63.886 108.572C63.886 105.394 64.3933 101.911 65.4078 98.1232C66.4222 94.3358 68.2483 89.9736 70.8859 85.0365C73.5235 80.0318 76.9051 74.7903 81.0306 69.3122C81.4364 68.7711 81.7408 68.2639 81.9436 67.7905C82.1465 67.317 82.248 66.9113 82.248 66.5731C82.3156 66.2349 82.3156 65.9644 82.248 65.7615C82.248 65.5586 82.1804 65.3557 82.0451 65.1528C81.9775 64.8823 81.9436 64.7132 81.9436 64.6456C81.4026 62.4138 82.0789 60.6892 83.9726 59.4718C85.8663 58.2544 88.5377 57.6458 91.9869 57.6458C95.4361 57.6458 98.4457 58.2544 101.016 59.4718C103.586 60.6892 105.175 62.4138 105.784 64.6456C105.987 65.2543 106.291 66.8436 106.697 69.4136C107.103 71.916 107.711 75.2299 108.523 79.3555C109.402 83.4133 110.416 87.6403 111.566 92.0364C113.122 97.8527 114.948 103.872 117.044 110.094C119.141 116.248 120.189 119.359 120.189 119.427Z" fill="white"/>
<path d="M278.796 161.874V143.429H291.225V146.645H282.696V151.04H290.585V154.255H282.696V158.659H291.261V161.874H278.796Z" fill="white"/>
<path d="M268.137 149.887H264.193C264.121 149.376 263.974 148.923 263.751 148.527C263.529 148.125 263.244 147.782 262.896 147.5C262.548 147.218 262.145 147.002 261.689 146.852C261.239 146.702 260.749 146.627 260.221 146.627C259.266 146.627 258.435 146.864 257.726 147.338C257.018 147.806 256.468 148.491 256.078 149.391C255.688 150.286 255.493 151.373 255.493 152.652C255.493 153.967 255.688 155.071 256.078 155.966C256.474 156.861 257.027 157.536 257.735 157.993C258.444 158.449 259.263 158.677 260.194 158.677C260.716 158.677 261.2 158.608 261.644 158.47C262.094 158.332 262.494 158.131 262.842 157.866C263.19 157.596 263.478 157.269 263.706 156.885C263.941 156.5 264.103 156.062 264.193 155.57L268.137 155.588C268.035 156.434 267.78 157.251 267.372 158.038C266.97 158.818 266.426 159.518 265.742 160.136C265.063 160.748 264.253 161.235 263.31 161.595C262.373 161.949 261.314 162.126 260.131 162.126C258.486 162.126 257.015 161.754 255.718 161.01C254.427 160.265 253.406 159.187 252.656 157.776C251.911 156.365 251.539 154.657 251.539 152.652C251.539 150.64 251.917 148.929 252.674 147.518C253.43 146.107 254.457 145.032 255.754 144.294C257.051 143.549 258.51 143.177 260.131 143.177C261.2 143.177 262.19 143.327 263.103 143.627C264.022 143.928 264.835 144.366 265.544 144.942C266.252 145.513 266.829 146.212 267.273 147.041C267.723 147.869 268.011 148.818 268.137 149.887Z" fill="white"/>
<path d="M240.779 143.429V161.874H237.411L229.386 150.265H229.251V161.874H225.351V143.429H228.773L236.735 155.029H236.897V143.429H240.779Z" fill="white"/>
<path d="M201.96 161.874V143.429H214.388V146.645H205.859V151.04H213.749V154.255H205.859V158.659H214.424V161.874H201.96Z" fill="white"/>
<path d="M190.889 143.429V161.874H186.989V143.429H190.889Z" fill="white"/>
<path d="M162.484 161.874V143.429H169.761C171.154 143.429 172.342 143.678 173.327 144.177C174.318 144.669 175.071 145.369 175.588 146.275C176.11 147.176 176.371 148.236 176.371 149.455C176.371 150.679 176.107 151.733 175.579 152.616C175.05 153.492 174.285 154.165 173.282 154.633C172.285 155.102 171.079 155.336 169.662 155.336H164.789V152.201H169.031C169.776 152.201 170.394 152.099 170.886 151.895C171.379 151.691 171.745 151.385 171.985 150.977C172.231 150.568 172.354 150.061 172.354 149.455C172.354 148.842 172.231 148.326 171.985 147.905C171.745 147.485 171.376 147.167 170.877 146.951C170.385 146.729 169.764 146.618 169.013 146.618H166.383V161.874H162.484ZM172.445 153.48L177.029 161.874H172.724L168.239 153.48H172.445Z" fill="white"/>
<path d="M139.092 161.874V143.429H151.521V146.645H142.992V151.04H150.882V154.255H142.992V158.659H151.557V161.874H139.092Z" fill="white"/>
<path d="M114.809 161.874V143.429H122.086C123.485 143.429 124.677 143.697 125.662 144.231C126.647 144.759 127.397 145.495 127.913 146.437C128.436 147.374 128.697 148.455 128.697 149.68C128.697 150.905 128.433 151.985 127.904 152.922C127.376 153.859 126.611 154.588 125.608 155.111C124.611 155.633 123.404 155.894 121.987 155.894H117.349V152.769H121.357C122.107 152.769 122.726 152.64 123.212 152.382C123.705 152.117 124.071 151.754 124.311 151.292C124.557 150.824 124.68 150.286 124.68 149.68C124.68 149.067 124.557 148.533 124.311 148.077C124.071 147.614 123.705 147.257 123.212 147.005C122.72 146.747 122.095 146.618 121.339 146.618H118.709V161.874H114.809Z" fill="white"/>
<path d="M92.474 143.429L96.1936 149.716H96.3377L100.075 143.429H104.479L98.8504 152.652L104.605 161.874H100.12L96.3377 155.579H96.1936L92.4109 161.874H87.9438L93.7168 152.652L88.0519 143.429H92.474Z" fill="white"/>
<path d="M65.4261 161.874V143.429H77.8548V146.645H69.3258V151.04H77.2154V154.255H69.3258V158.659H77.8908V161.874H65.4261Z" fill="white"/>
</svg>
